<?xml version="1.0" encoding="UTF-8" standalone="no"?>
<svg
   width="13in"
   height="3.41667in"
   viewBox="0 0 936 246"
   version="1.1"
   id="svg79"
   sodipodi:docname="vial_word.svg"
   inkscape:version="1.1.2 (b8e25be8, 2022-02-05)"
   xmlns:inkscape="http://www.inkscape.org/namespaces/inkscape"
   xmlns:sodipodi="http://sodipodi.sourceforge.net/DTD/sodipodi-0.dtd"
   xmlns="http://www.w3.org/2000/svg"
   xmlns:svg="http://www.w3.org/2000/svg">
  <defs
     id="defs83" />
  <sodipodi:namedview
     id="namedview81"
     pagecolor="#ffffff"
     bordercolor="#666666"
     borderopacity="1.0"
     inkscape:pageshadow="2"
     inkscape:pageopacity="0.0"
     inkscape:pagecheckerboard="0"
     inkscape:document-units="in"
     showgrid="false"
     inkscape:zoom="0.62268458"
     inkscape:cx="495.43543"
     inkscape:cy="4.0148738"
     inkscape:window-width="1312"
     inkscape:window-height="1027"
     inkscape:window-x="0"
     inkscape:window-y="25"
     inkscape:window-maximized="0"
     inkscape:current-layer="svg79" />
  <path
     id="Selection"
     d="m 439.5,61 v 146 h -38 V 61 Z m 155,0 15.58,43 19.19,52 4.28,13 13.95,38 h -31 c -1.98,-0.01 -6.99,0.01 -6.99,-0.01 0.01,0.01 -5.39,-14.47 -6.43,-17.99 -0.74,-2.49 -2.67,-8.73 -2.85,-8.91 0.27,-0.18 -6.52,-0.09 -8.73,-0.09 h -41 c -2.64,0.01 -9.01,0 -9,0.02 -0.01,0 -5.04,16.11 -5.97,18.98 -0.75,2.29 -3.04,7.99 -3.05,8 0,0 -4.19,-0.04 -5.98,0 h -32 l 13.95,-38 4.28,-13 19.19,-52 15.58,-43 z m 153,0 v 118 h 66 v 28 h -104 V 61 Z m -184,57 -12,35 h 39 L 585.17,137 571.5,97 Z"
     sodipodi:nodetypes="ccccccccccccccscccccccccccccccccccccccc" />
  <text
     xml:space="preserve"
     style="font-style:normal;font-variant:normal;font-weight:bold;font-stretch:normal;font-size:30px;line-height:1.25;font-family:sans-serif;-inkscape-font-specification:'sans-serif Bold';white-space:pre;inline-size:112.49;fill:#000000;fill-opacity:1;stroke:none;stroke-width:0.75"
     x="119.24174"
     y="115.62823"
     id="text1578"
     transform="matrix(6.9164346,0,0,6.6258799,-636.89125,-559.34)"><tspan
       x="119.24174"
       y="115.62823"
       id="tspan7596">V</tspan></text>
</svg>
