<svg width="13in" height="328" viewBox="0 0 936 246" xmlns="http://www.w3.org/2000/svg"><path d="M439.5 61v146h-38V61zm155 0l15.58 43 19.19 52 4.28 13 13.95 38h-31c-1.98-.01-6.99.01-6.99-.01.01.01-5.39-14.47-6.43-17.99-.74-2.49-2.67-8.73-2.85-8.91.27-.18-6.52-.09-8.73-.09h-41c-2.64.01-9.01 0-9 .02-.01 0-5.04 16.11-5.97 18.98-.75 2.29-3.04 7.99-3.05 8 0 0-4.19-.04-5.98 0h-32l13.95-38 4.28-13 19.19-52 15.58-43zm153 0v118h66v28h-104V61zm-184 57l-12 35h39l-5.33-16-13.67-40z"/><text style="line-height:1.25;-inkscape-font-specification:'sans-serif Bold';white-space:pre;inline-size:112.49" x="119.242" y="115.628" transform="matrix(6.47583 0 0 5.98949 -577.841 -486.181)" font-weight="700" font-size="33.237" font-family="sans-serif" stroke-width=".75"><tspan x="119.242" y="115.628">V</tspan></text></svg>